# xmcd
#
# Track frame offsets: 
#        150
#        13190
#        24358
#        35294
#        48293
#        60635
#        78886
#        90284
#        105702
#        115994
#        127802
#        142510
#        154948
#        167046
#        180064
#        194343
#        209563
#        230924
#
# Disc length: 3299 seconds
#
# Revision: 0
# Processed by: cddbd v1.5.2PL0 Copyright (c) Steve Scherf et al.
# Submitted via: ExactAudioCopyFreeDBPlugin 1.0
#
DISCID=da0ce112
DTITLE=Various Artist - Devil's Blues
DYEAR=2007
DGENRE=Blues
TTITLE0=Otis Spann - Must Have Been The Devil
TTITLE1=Memphis Minnie - Kissing In The Dark
TTITLE2=Otis Rush - Violent Love
TTITLE3=John Brim - Drinking Woman
TTITLE4=Magic Sam - 21 Days In Jail
TTITLE5=Lightnin’ Hopkins - Gambler's Blues
TTITLE6=Big Mac - Bad Affair
TTITLE7=Carter Brothers - Booze In The Bottle
TTITLE8=Peppermint Harris - Bad Bad Whiskey
TTITLE9=Charles Brown - Trouble Blues
TTITLE10=George (Wildchild) Butler - Runnin' Drunk
TTITLE11=Detroit Junior - Talk Fast
TTITLE12=Little Johnny Taylor - Open House At My House
TTITLE13=Ted Taylor - Something Strange Goin' On In My House
TTITLE14=Bobby Patterson - Right On Jody
TTITLE15=Cash McCall - Stoop Down Baby
TTITLE16=Cicero Blake - Dip My Dipper
TTITLE17=Tommie Young - Everybody's Got A Little Devil In Their Soul
EXTD=
EXTT0=
EXTT1=
EXTT2=
EXTT3=
EXTT4=
EXTT5=
EXTT6=
EXTT7=
EXTT8=
EXTT9=
EXTT10=
EXTT11=
EXTT12=
EXTT13=
EXTT14=
EXTT15=
EXTT16=
EXTT17=
PLAYORDER=
